<?xml version="1.0" encoding="UTF-8" standalone="no"?>
<!-- Created with Inkscape (http://www.inkscape.org/) -->

<svg
   width="27.850544mm"
   height="9.2726498mm"
   viewBox="0 0 27.850544 9.2726498"
   version="1.1"
   id="svg1"
   xml:space="preserve"
   xmlns:inkscape="http://www.inkscape.org/namespaces/inkscape"
   xmlns:sodipodi="http://sodipodi.sourceforge.net/DTD/sodipodi-0.dtd"
   xmlns="http://www.w3.org/2000/svg"
   xmlns:svg="http://www.w3.org/2000/svg"><sodipodi:namedview
     id="namedview1"
     pagecolor="#505050"
     bordercolor="#eeeeee"
     borderopacity="1"
     inkscape:showpageshadow="0"
     inkscape:pageopacity="0"
     inkscape:pagecheckerboard="0"
     inkscape:deskcolor="#505050"
     inkscape:document-units="mm"
     showguides="false"><inkscape:page
       x="0"
       y="0"
       width="27.850544"
       height="9.2726498"
       id="page2"
       margin="0"
       bleed="0" /></sodipodi:namedview><defs
     id="defs1" /><g
     inkscape:label="Layer 1"
     inkscape:groupmode="layer"
     id="layer1"
     transform="translate(-87.499896,-105.27916)"><g
       id="g5"><path
         id="path5"
         style="fill:none;fill-rule:evenodd;stroke:#c3b73e;stroke-width:0.660162"
         d="m 103.10653,111.2715 c 0.43794,0.39034 -0.3101,0.78291 -0.64877,0.72789 -0.91775,-0.14913 -1.13014,-1.30148 -0.807,-2.02542 0.57802,-1.29497 2.25823,-1.53935 3.40207,-0.88613 1.67863,0.95864 1.95978,3.22764 0.96524,4.77872 -1.32556,2.06735 -4.2015,2.38495 -6.155372,1.04437 -2.45875,-1.68699 -2.812542,-5.17747 -1.123481,-7.53203 2.045683,-2.85168 6.154623,-3.24154 8.908673,-1.2026 3.24556,2.40283 3.67144,7.13252 1.28172,10.28533 -2.75902,3.64004 -8.11091,4.10191 -11.661977,1.36084 -4.034951,-3.11459 -4.532805,-9.08965 -1.439958,-13.03863 1.515772,-1.93536 3.746946,-3.24215 6.166525,-3.65737"
         transform="matrix(0.54322748,-0.45047809,-0.24146926,-0.2513478,74.655175,183.82924)" /><path
         style="fill:#fbfbfb;fill-opacity:1;stroke-width:0.132;stroke-dasharray:none"
         d="m 87.502137,114.21658 c 0.01791,-0.0246 0.629571,-0.93973 1.359242,-2.03354 0.729671,-1.09381 2.019924,-3.02723 2.867228,-4.2965 l 1.540553,-2.30775 1.032838,-0.003 1.032837,-0.003 0.0086,4.34419 0.0086,4.3442 h -0.815793 -0.815834 l 0.0096,-0.8783 0.0096,-0.8783 -1.54259,0.009 -1.54259,0.009 -0.58876,0.86896 -0.588761,0.86896 h -1.003708 c -0.797709,0 -0.997024,-0.009 -0.971141,-0.0448 z m 6.271489,-4.9002 c 0,-0.78833 -0.0076,-1.43243 -0.01697,-1.43133 -0.01598,0.002 -1.852603,2.70724 -1.910774,2.81458 -0.02297,0.0424 0.122958,0.0501 0.950302,0.0501 h 0.977442 z m 2.270828,0.59813 v -4.34686 l 0.797574,-0.002 0.797574,-0.002 v 3.47089 3.47089 l 1.111513,8.3e-4 1.111508,8.3e-4 0.559997,0.82902 c 0.308,0.45596 0.57222,0.85067 0.58714,0.87714 0.0226,0.0401 -0.38916,0.0481 -2.469079,0.0481 h -2.496227 z m 12.252096,0.002 1e-5,-4.34479 0.81421,-0.006 0.81421,-0.006 0.009,1.69253 0.009,1.69253 1.44242,-1.67688 1.44242,-1.67689 1.07779,-6.3e-4 1.07778,-6.2e-4 -1.31966,1.5677 c -0.72582,0.86224 -1.45074,1.72282 -1.61096,1.91239 l -0.2913,0.34467 0.69635,0.92741 c 0.38299,0.51007 1.18037,1.57154 1.77196,2.35882 0.59159,0.78728 1.09557,1.46049 1.11996,1.49604 0.0425,0.0619 -1.87981,0.0646 -1.00675,0.0646 h -1.0511 l -1.33831,-1.76812 -1.33831,-1.76812 -0.34463,0.38564 -0.34463,0.38564 v 1.38248 1.38248 h -0.81454 -0.81454 z"
         id="path3"
         inkscape:export-filename="logo.svg"
         inkscape:export-xdpi="96"
         inkscape:export-ydpi="96"
         sodipodi:nodetypes="csscccccccccccccsccscsscsccccccccsssccccccccccccsscsssscccccccccc" /></g></g></svg>
