<?xml version="1.0" encoding="UTF-8" standalone="no"?>
<!-- Created with Inkscape (http://www.inkscape.org/) -->

<svg
   width="32.214481mm"
   height="29.852142mm"
   viewBox="0 0 32.214481 29.852142"
   version="1.1"
   id="svg1"
   xml:space="preserve"
   xmlns="http://www.w3.org/2000/svg"
   xmlns:svg="http://www.w3.org/2000/svg"><defs
     id="defs1"><linearGradient
       id="paint0_linear_2160_23"
       x1="851.31799"
       y1="47.553001"
       x2="756.75098"
       y2="339.40201"
       gradientUnits="userSpaceOnUse"><stop
         stop-color="#DF8908"
         id="stop1" /><stop
         offset="1"
         stop-color="#B415FF"
         id="stop2-5" /></linearGradient></defs><g
     id="layer1"
     transform="translate(-114.91001,-121.56512)"><g
       id="g7"
       transform="translate(-0.46993671,10.540009)"><g
         id="g8"><g
           id="g11"><path
             id="path6"
             style="fill:none;fill-rule:evenodd;stroke:#eaf185;stroke-width:0.527002;stroke-dasharray:none;stroke-opacity:1"
             d="m 103.79683,109.41416 c 0.14364,-0.29539 -0.3575,-0.0571 -0.52819,0.1093 -0.46254,0.45091 -0.29966,0.83623 0.0507,0.87262 0.62669,0.0651 1.59844,-0.63037 2.06207,-1.30983 0.68039,-0.99713 0.28523,-1.69409 -0.62957,-1.63594 -1.21928,0.0775 -2.85826,1.29323 -3.59595,2.51036 -0.9283,1.53164 -0.27765,2.56834 1.20845,2.39927 1.79986,-0.20478 4.12609,-1.95777 5.12982,-3.7109 1.18287,-2.066 0.27215,-3.44664 -1.78732,-3.16258 -2.37773,0.32796 -5.39656,2.62278 -6.663708,4.91142 -1.439819,2.60051 -0.267474,4.3266 2.366208,3.9259 1.29073,-0.19637 2.81832,-0.87301 4.23296,-1.85861" /><path
             style="fill:#fbfbfb;fill-opacity:1;stroke-width:0.132;stroke-dasharray:none"
             d="m 87.502137,114.21658 c 0.01791,-0.0246 0.629571,-0.93973 1.359242,-2.03354 0.729671,-1.09381 2.019924,-3.02723 2.867228,-4.2965 l 1.540553,-2.30775 1.032838,-0.003 1.032837,-0.003 0.0086,4.34419 0.0086,4.3442 -1.622027,-0.8783 0.0096,-0.8783 -1.54259,0.009 -1.54259,0.009 -0.58876,0.86896 -0.588761,0.86896 h -1.003708 c -0.797709,0 -0.997024,-0.009 -0.971141,-0.0448 z m 6.271489,-4.9002 c 0,-0.78833 -0.0076,-1.43243 -0.01697,-1.43133 -0.01598,0.002 -1.852603,2.70724 -1.910774,2.81458 -0.02297,0.0424 0.122958,0.0501 0.950302,0.0501 h 0.977442 z m 2.270828,0.59813 v -4.34686 l 0.797574,-0.002 0.797574,-0.002 v 3.47089 3.47089 l -1.595148,1.75592 z m 12.252096,0.002 1e-5,-4.34479 0.81421,-0.006 0.81421,-0.006 0.009,1.69253 0.009,1.69253 1.44242,-1.67688 1.44242,-1.67689 1.07779,-6.3e-4 1.07778,-6.2e-4 -1.31966,1.5677 c -0.72582,0.86224 -1.45074,1.72282 -1.61096,1.91239 l -0.2913,0.34467 0.69635,0.92741 c 0.38299,0.51007 1.18037,1.57154 1.77196,2.35882 0.59159,0.78728 1.09557,1.46049 1.11996,1.49604 0.0425,0.0619 -1.87981,0.0646 -1.00675,0.0646 h -1.0511 l -1.33831,-1.76812 -1.33831,-1.76812 -0.34463,0.38564 -0.34463,0.38564 v 1.38248 1.38248 l -1.62919,-1.27518 z"
             id="path7" /></g><path
           id="path10"
           style="fill:none;fill-rule:evenodd;stroke:#eaf185;stroke-width:2.04668;stroke-dasharray:none;stroke-opacity:0.795964"
           d="m 61.128319,117.57147 c -0.532031,1.15929 1.392984,0.19055 2.041225,-0.47041 1.756607,-1.79089 1.090707,-3.27275 -0.272688,-3.38356 -2.438807,-0.19822 -6.151183,2.58648 -7.892169,5.26481 -2.554972,3.93056 -0.960121,6.6022 2.58657,6.29681 2.69236,-0.23176 5.881202,-1.9089 8.63722,-4.19472 3.305479,-2.74154 8.256083,-9.83227 5.977353,-13.24808 -0.997274,-1.49491 -3.027786,-2.20114 -5.771905,-1.82654 -6.970231,0.95147 -15.849488,7.95986 -19.594067,14.85366 -4.412906,8.12419 -0.75695,13.40542 7.214362,12.12346 9.203092,-1.48007 20.72424,-10.65227 25.445006,-19.64821 5.364035,-10.22174 0.662281,-16.821391 -9.528223,-15.036673 -4.994264,0.874679 -10.866338,3.634503 -16.273055,7.584203" /><g
           style="fill:none"
           id="g10"
           transform="matrix(0.26458333,0,0,0.26458333,36.882977,54.739855)"><path
             d="M 0,61.1395 C 0,55.1999 5.16729,50.5816 11.0696,51.2459 L 187.039,71.052 C 209.597,73.591 228.703,54.5844 226.282,32.0133 223.76,8.50255 199.379,-6.00841 177.511,2.98631 L 13.7433,70.3471 C 7.19098,73.0422 0,68.2245 0,61.1395 Z"
             fill="url(#paint0_linear_2160_23)"
             id="path1-1"
             style="fill:url(#paint0_linear_2160_23)" /></g><path
           id="path4"
           style="fill:none;fill-rule:evenodd;stroke:#eaf185;stroke-width:2.04668;stroke-dasharray:none;stroke-opacity:0.804933"
           d="m 61.128319,117.57147 c -0.532031,1.15929 1.392984,0.19055 2.041225,-0.47041 1.756607,-1.79089 1.090707,-3.27275 -0.272688,-3.38356 -2.438807,-0.19822 -6.151183,2.58648 -7.892169,5.26481 -2.554972,3.93056 -0.960121,6.6022 2.58657,6.29681 2.69236,-0.23176 5.881202,-1.9089 8.63722,-4.19472 3.305479,-2.74154 8.256083,-9.83227 5.977353,-13.24808 -0.997274,-1.49491 -3.027786,-2.20114 -5.771905,-1.82654 -6.970231,0.95147 -15.849488,7.95986 -19.594067,14.85366 -4.412906,8.12419 -0.75695,13.40542 7.214362,12.12346 9.203092,-1.48007 20.72424,-10.65227 25.445006,-19.64821 5.364035,-10.22174 0.662281,-16.821391 -9.528223,-15.036673 -4.994264,0.874679 -10.866338,3.634503 -16.273055,7.584203"
           transform="matrix(0.72665767,-0.35902241,-0.16796915,0.53086896,104.99038,87.134559)" /></g></g></g></svg>
